<?xml version="1.0" encoding="utf-8"?>
<!--Designed by Vexels.com - 2018 All Rights Reserved - https://vexels.com/terms-and-conditions/-->
<svg version="1.1" id="Layer_1" xmlns="http://www.w3.org/2000/svg" xmlns:xlink="http://www.w3.org/1999/xlink" x="0px" y="0px"
	 viewBox="0 0 1200 1200" enable-background="new 0 0 1200 1200" xml:space="preserve">
<g>
	<g>
		<path fill="rgba(0,153,204,.9)" d="M586.626,102.86c281.554,0,509.798,228.244,509.798,509.798s-228.244,509.798-509.798,509.798V102.86z"/>
	</g>
	<g>
		<polygon fill="white" points="600.005,373.538 403.487,516.315 478.549,747.335 721.458,747.335 796.523,516.315 		"/>
		<path fill="lightgray" d="M600,50.01c-303.261,0-550,246.738-550,550s246.739,549.98,550,549.98s550-246.719,550-549.98
			S903.262,50.01,600,50.01z M376.038,1012.654l28.382-89.105L211.758,780.77l-33.367,24.729
			c-30.433-62.17-48.003-131.735-48.003-205.489c0-86.806,24.096-167.906,65.328-237.745h133.641l58.736-180.775
			c63.753-32.415,135.621-51.091,211.907-51.091c58.535,0,114.371,11.251,166.095,30.904l65.296,200.963h172.893
			c41.232,69.839,65.328,150.939,65.328,237.745c0,81.119-20.701,157.487-57.06,224.139l-59.705-43.378L756.329,923.55
			l34.203,105.271c-58.304,26.012-122.675,40.781-190.532,40.781C518.952,1069.602,442.646,1048.95,376.038,1012.654z"/>
	</g>
</g>
</svg>
